<svg width="212" height="46" viewBox="0 0 212 46" fill="none" xmlns="http://www.w3.org/2000/svg">
<g clip-path="url(#clip0_962_7444)">
<path d="M16.0249 10.4501L19.6249 6.25012L11.8249 6.85002C10.8649 12.61 8.62489 18.8501 7.62488 21.2501C12.4249 29.41 23.2249 36.6501 28.0248 39.25L61.0249 22.45C39.4248 25.81 22.0249 15.8501 16.0249 10.4501Z" fill="#0ABAB5"/>
<path d="M88.6248 7.45017C70.8648 4.09017 52.4249 14.85 45.4249 20.6501C56.4647 21.1301 64.4248 20.0502 67.0248 19.4501C87.1848 11.77 89.8248 8.25009 88.6248 7.45017Z" fill="#0ABAB5"/>
</g>
<path d="M103.139 20.294H107.969V22.625H100.199V7.967H103.139V20.294ZM112.736 7.967V17.039C112.736 18.033 112.995 18.796 113.513 19.328C114.031 19.846 114.759 20.105 115.697 20.105C116.649 20.105 117.384 19.846 117.902 19.328C118.42 18.796 118.679 18.033 118.679 17.039V7.967H121.64V17.018C121.64 18.264 121.367 19.321 120.821 20.189C120.289 21.043 119.568 21.687 118.658 22.121C117.762 22.555 116.761 22.772 115.655 22.772C114.563 22.772 113.569 22.555 112.673 22.121C111.791 21.687 111.091 21.043 110.573 20.189C110.055 19.321 109.796 18.264 109.796 17.018V7.967H112.736ZM133.258 22.625L130.087 17.69L127.21 22.625H123.892L128.512 15.233L123.829 7.967H127.21L130.381 12.881L133.237 7.967H136.555L131.956 15.338L136.639 22.625H133.258ZM141.817 10.34V14.015H146.752V16.346H141.817V20.231H147.382V22.625H138.877V7.946H147.382V10.34H141.817ZM155.114 22.772C154.092 22.772 153.168 22.597 152.342 22.247C151.53 21.897 150.886 21.393 150.41 20.735C149.934 20.077 149.689 19.3 149.675 18.404H152.825C152.867 19.006 153.077 19.482 153.455 19.832C153.847 20.182 154.379 20.357 155.051 20.357C155.737 20.357 156.276 20.196 156.668 19.874C157.06 19.538 157.256 19.104 157.256 18.572C157.256 18.138 157.123 17.781 156.857 17.501C156.591 17.221 156.255 17.004 155.849 16.85C155.457 16.682 154.911 16.5 154.211 16.304C153.259 16.024 152.482 15.751 151.88 15.485C151.292 15.205 150.781 14.792 150.347 14.246C149.927 13.686 149.717 12.944 149.717 12.02C149.717 11.152 149.934 10.396 150.368 9.752C150.802 9.108 151.411 8.618 152.195 8.282C152.979 7.932 153.875 7.757 154.883 7.757C156.395 7.757 157.62 8.128 158.558 8.87C159.51 9.598 160.035 10.62 160.133 11.936H156.899C156.871 11.432 156.654 11.019 156.248 10.697C155.856 10.361 155.331 10.193 154.673 10.193C154.099 10.193 153.637 10.34 153.287 10.634C152.951 10.928 152.783 11.355 152.783 11.915C152.783 12.307 152.909 12.636 153.161 12.902C153.427 13.154 153.749 13.364 154.127 13.532C154.519 13.686 155.065 13.868 155.765 14.078C156.717 14.358 157.494 14.638 158.096 14.918C158.698 15.198 159.216 15.618 159.65 16.178C160.084 16.738 160.301 17.473 160.301 18.383C160.301 19.167 160.098 19.895 159.692 20.567C159.286 21.239 158.691 21.778 157.907 22.184C157.123 22.576 156.192 22.772 155.114 22.772ZM171.124 22.625L165.79 16.094V22.625H162.85V7.967H165.79V14.54L171.124 7.967H174.673L168.625 15.233L174.841 22.625H171.124ZM179.715 7.967V22.625H176.775V7.967H179.715ZM185.56 10.34V14.015H190.495V16.346H185.56V20.231H191.125V22.625H182.62V7.946H191.125V10.34H185.56ZM198.858 22.772C197.836 22.772 196.912 22.597 196.086 22.247C195.274 21.897 194.63 21.393 194.154 20.735C193.678 20.077 193.433 19.3 193.419 18.404H196.569C196.611 19.006 196.821 19.482 197.199 19.832C197.591 20.182 198.123 20.357 198.795 20.357C199.481 20.357 200.02 20.196 200.412 19.874C200.804 19.538 201 19.104 201 18.572C201 18.138 200.867 17.781 200.601 17.501C200.335 17.221 199.999 17.004 199.593 16.85C199.201 16.682 198.655 16.5 197.955 16.304C197.003 16.024 196.226 15.751 195.624 15.485C195.036 15.205 194.525 14.792 194.091 14.246C193.671 13.686 193.461 12.944 193.461 12.02C193.461 11.152 193.678 10.396 194.112 9.752C194.546 9.108 195.155 8.618 195.939 8.282C196.723 7.932 197.619 7.757 198.627 7.757C200.139 7.757 201.364 8.128 202.302 8.87C203.254 9.598 203.779 10.62 203.877 11.936H200.643C200.615 11.432 200.398 11.019 199.992 10.697C199.6 10.361 199.075 10.193 198.417 10.193C197.843 10.193 197.381 10.34 197.031 10.634C196.695 10.928 196.527 11.355 196.527 11.915C196.527 12.307 196.653 12.636 196.905 12.902C197.171 13.154 197.493 13.364 197.871 13.532C198.263 13.686 198.809 13.868 199.509 14.078C200.461 14.358 201.238 14.638 201.84 14.918C202.442 15.198 202.96 15.618 203.394 16.178C203.828 16.738 204.045 17.473 204.045 18.383C204.045 19.167 203.842 19.895 203.436 20.567C203.03 21.239 202.435 21.778 201.651 22.184C200.867 22.576 199.936 22.772 198.858 22.772Z" fill="black"/>
<path d="M107.825 30.2C107.535 29.59 107.115 29.12 106.565 28.79C106.015 28.45 105.375 28.28 104.645 28.28C103.915 28.28 103.255 28.45 102.665 28.79C102.085 29.12 101.625 29.6 101.285 30.23C100.955 30.85 100.79 31.57 100.79 32.39C100.79 33.21 100.955 33.93 101.285 34.55C101.625 35.17 102.085 35.65 102.665 35.99C103.255 36.32 103.915 36.485 104.645 36.485C105.665 36.485 106.505 36.18 107.165 35.57C107.825 34.96 108.21 34.135 108.32 33.095H104.15V31.985H109.775V33.035C109.695 33.895 109.425 34.685 108.965 35.405C108.505 36.115 107.9 36.68 107.15 37.1C106.4 37.51 105.565 37.715 104.645 37.715C103.675 37.715 102.79 37.49 101.99 37.04C101.19 36.58 100.555 35.945 100.085 35.135C99.625 34.325 99.395 33.41 99.395 32.39C99.395 31.37 99.625 30.455 100.085 29.645C100.555 28.825 101.19 28.19 101.99 27.74C102.79 27.28 103.675 27.05 104.645 27.05C105.755 27.05 106.735 27.325 107.585 27.875C108.445 28.425 109.07 29.2 109.46 30.2H107.825ZM118.135 37.625L115.645 33.35H113.995V37.625H112.63V27.17H116.005C116.795 27.17 117.46 27.305 118 27.575C118.55 27.845 118.96 28.21 119.23 28.67C119.5 29.13 119.635 29.655 119.635 30.245C119.635 30.965 119.425 31.6 119.005 32.15C118.595 32.7 117.975 33.065 117.145 33.245L119.77 37.625H118.135ZM113.995 32.255H116.005C116.745 32.255 117.3 32.075 117.67 31.715C118.04 31.345 118.225 30.855 118.225 30.245C118.225 29.625 118.04 29.145 117.67 28.805C117.31 28.465 116.755 28.295 116.005 28.295H113.995V32.255ZM127.546 37.73C126.576 37.73 125.691 37.505 124.891 37.055C124.091 36.595 123.456 35.96 122.986 35.15C122.526 34.33 122.296 33.41 122.296 32.39C122.296 31.37 122.526 30.455 122.986 29.645C123.456 28.825 124.091 28.19 124.891 27.74C125.691 27.28 126.576 27.05 127.546 27.05C128.526 27.05 129.416 27.28 130.216 27.74C131.016 28.19 131.646 28.82 132.106 29.63C132.566 30.44 132.796 31.36 132.796 32.39C132.796 33.42 132.566 34.34 132.106 35.15C131.646 35.96 131.016 36.595 130.216 37.055C129.416 37.505 128.526 37.73 127.546 37.73ZM127.546 36.545C128.276 36.545 128.931 36.375 129.511 36.035C130.101 35.695 130.561 35.21 130.891 34.58C131.231 33.95 131.401 33.22 131.401 32.39C131.401 31.55 131.231 30.82 130.891 30.2C130.561 29.57 130.106 29.085 129.526 28.745C128.946 28.405 128.286 28.235 127.546 28.235C126.806 28.235 126.146 28.405 125.566 28.745C124.986 29.085 124.526 29.57 124.186 30.2C123.856 30.82 123.691 31.55 123.691 32.39C123.691 33.22 123.856 33.95 124.186 34.58C124.526 35.21 124.986 35.695 125.566 36.035C126.156 36.375 126.816 36.545 127.546 36.545ZM136.983 27.17V33.785C136.983 34.715 137.208 35.405 137.658 35.855C138.118 36.305 138.753 36.53 139.563 36.53C140.363 36.53 140.988 36.305 141.438 35.855C141.898 35.405 142.128 34.715 142.128 33.785V27.17H143.493V33.77C143.493 34.64 143.318 35.375 142.968 35.975C142.618 36.565 142.143 37.005 141.543 37.295C140.953 37.585 140.288 37.73 139.548 37.73C138.808 37.73 138.138 37.585 137.538 37.295C136.948 37.005 136.478 36.565 136.128 35.975C135.788 35.375 135.618 34.64 135.618 33.77V27.17H136.983ZM153.81 30.23C153.81 31.1 153.51 31.825 152.91 32.405C152.32 32.975 151.415 33.26 150.195 33.26H148.185V37.625H146.82V27.17H150.195C151.375 27.17 152.27 27.455 152.88 28.025C153.5 28.595 153.81 29.33 153.81 30.23ZM150.195 32.135C150.955 32.135 151.515 31.97 151.875 31.64C152.235 31.31 152.415 30.84 152.415 30.23C152.415 28.94 151.675 28.295 150.195 28.295H148.185V32.135H150.195Z" fill="black"/>
<defs>
<clipPath id="clip0_962_7444">
<rect width="84" height="33.2501" fill="white" transform="translate(6 6)"/>
</clipPath>
</defs>
</svg>
